<svg width="158" height="43" viewBox="0 0 158 43" fill="none" xmlns="http://www.w3.org/2000/svg">
<path fill-rule="evenodd" clip-rule="evenodd" d="M5.417 7.66961C2.35336 11.1412 0.515461 15.5085 0.182046 20.109H2.97498C3.31472 16.2496 4.87613 12.5954 7.43619 9.66823L5.417 7.66961Z" fill="#FFA101"/>
<path fill-rule="evenodd" clip-rule="evenodd" d="M9.45248 11.664C7.41665 14.0546 6.15381 16.9972 5.82828 20.109L17.9693 20.1061L9.45248 11.664Z" fill="#FFA101"/>
<path fill-rule="evenodd" clip-rule="evenodd" d="M20.1036 0.430664C15.4691 0.744916 11.0639 2.54638 7.5541 5.56264L9.57617 7.56697C12.5489 5.08615 16.2298 3.58883 20.1036 3.28461V0.430664Z" fill="#FFA101"/>
<path fill-rule="evenodd" clip-rule="evenodd" d="M20.1036 6.10152C16.984 6.39745 14.023 7.60399 11.5954 9.56846L20.1036 18.002V6.10152Z" fill="#FFA101"/>
<path fill-rule="evenodd" clip-rule="evenodd" d="M5.81678 23.2109C6.09667 26.3246 7.32786 29.2795 9.34606 31.6816L17.9693 23.2138L5.81678 23.2109Z" fill="#FFA101"/>
<path fill-rule="evenodd" clip-rule="evenodd" d="M0.17627 23.2109C0.479744 27.7934 2.29956 32.1486 5.35369 35.6018L7.32974 33.6631C4.78498 30.7307 3.2539 27.068 2.96057 23.2109H0.17627Z" fill="#FFA101"/>
<path fill-rule="evenodd" clip-rule="evenodd" d="M11.4688 33.76C13.9181 35.7857 16.928 37.03 20.1036 37.3296V25.2039L11.4688 33.76Z" fill="#FFA101"/>
<path fill-rule="evenodd" clip-rule="evenodd" d="M7.47931 37.7145C10.9994 40.771 15.4347 42.5971 20.1036 42.9121V40.1465C16.1764 39.834 12.4498 38.297 9.45824 35.7558L7.47931 37.7145Z" fill="#FFA101"/>
<path fill-rule="evenodd" clip-rule="evenodd" d="M37.8621 35.6047C40.9149 32.1504 42.7354 27.7959 43.0424 23.2138H40.3041C40.0088 27.0809 38.4704 30.7522 35.9148 33.6887L37.8621 35.6047Z" fill="#FFA101"/>
<path fill-rule="evenodd" clip-rule="evenodd" d="M25.2436 23.2138L33.8985 31.7101C35.9288 29.3035 37.1675 26.3386 37.4479 23.2138H25.2436Z" fill="#FFA101"/>
<path fill-rule="evenodd" clip-rule="evenodd" d="M37.4336 20.1061C37.1076 16.9845 35.8384 14.0331 33.7921 11.6383L25.2465 20.1061H37.4336Z" fill="#FFA101"/>
<path fill-rule="evenodd" clip-rule="evenodd" d="M43.0338 20.1061C42.7002 15.5065 40.8623 11.1402 37.7989 7.66961L35.8055 9.64542C38.3799 12.5738 39.95 16.2366 40.2898 20.1061H43.0338Z" fill="#FFA101"/>
<path fill-rule="evenodd" clip-rule="evenodd" d="M23.1151 42.912C27.7808 42.5954 32.2132 40.7717 35.7337 37.7202L33.7777 35.7814C30.7777 38.3164 27.0453 39.8453 23.1151 40.1493V42.912Z" fill="#FFA101"/>
<path fill-rule="evenodd" clip-rule="evenodd" d="M23.1151 37.3353C26.2936 37.0434 29.3091 35.8072 31.7672 33.7885L23.1151 25.2067V37.3353Z" fill="#FFA101"/>
<path d="M57.5038 38.5507H53.6788C53.0488 38.5507 52.7338 38.2507 52.7338 37.6507V10.4257C52.7338 9.79566 53.0488 9.48066 53.6788 9.48066H57.5038C58.1338 9.48066 58.4488 9.79566 58.4488 10.4257V11.9107H58.6288C58.9588 11.1007 59.5438 10.5007 60.3838 10.1107C61.2238 9.69066 62.1088 9.48066 63.0388 9.48066H64.8838C67.1938 9.48066 68.9338 10.1107 70.1038 11.3707C71.3038 12.6307 71.9038 14.4457 71.9038 16.8157V25.0957C71.9038 27.4657 71.3038 29.2807 70.1038 30.5407C68.9338 31.8007 67.1938 32.4307 64.8838 32.4307H63.0388C62.1088 32.4307 61.2238 32.2357 60.3838 31.8457C59.5438 31.4257 58.9588 30.8107 58.6288 30.0007H58.4488V37.6507C58.4488 38.2507 58.1338 38.5507 57.5038 38.5507ZM61.5538 27.4807H63.5338C64.4938 27.4807 65.1688 27.2857 65.5588 26.8957C65.9788 26.4757 66.1888 25.7857 66.1888 24.8257V17.0857C66.1888 16.1257 65.9788 15.4507 65.5588 15.0607C65.1688 14.6407 64.4938 14.4307 63.5338 14.4307H61.5538C59.4838 14.4307 58.4488 15.5707 58.4488 17.8507V24.0607C58.4488 26.3407 59.4838 27.4807 61.5538 27.4807ZM93.3403 32.4307H83.3953C81.0253 32.4307 79.1953 31.8007 77.9053 30.5407C76.6153 29.2807 75.9703 27.4657 75.9703 25.0957V16.8157C75.9703 14.4457 76.6153 12.6307 77.9053 11.3707C79.1953 10.1107 81.0253 9.48066 83.3953 9.48066H86.9503C89.3203 9.48066 91.1503 10.1107 92.4403 11.3707C93.7303 12.6307 94.3753 14.4457 94.3753 16.8157V22.5307C94.3753 23.1607 94.0603 23.4757 93.4303 23.4757H82.1353C81.7753 23.4757 81.5953 23.6407 81.5953 23.9707V24.9607C81.5953 25.8907 81.7903 26.5657 82.1803 26.9857C82.6003 27.3757 83.2903 27.5707 84.2503 27.5707H93.3403C93.9703 27.5707 94.2853 27.9007 94.2853 28.5607V31.5307C94.2853 31.8607 94.2103 32.1007 94.0603 32.2507C93.9403 32.3707 93.7003 32.4307 93.3403 32.4307ZM82.1353 19.6507H88.2553C88.5853 19.6507 88.7503 19.4857 88.7503 19.1557V16.9957C88.7503 16.0357 88.5553 15.3607 88.1653 14.9707C87.7753 14.5807 87.1003 14.3857 86.1403 14.3857H84.2503C83.2903 14.3857 82.6153 14.5807 82.2253 14.9707C81.8353 15.3607 81.6403 16.0357 81.6403 16.9957V19.1557C81.6403 19.4857 81.8053 19.6507 82.1353 19.6507ZM99.1516 14.4307H97.3516C96.9916 14.4307 96.7366 14.3707 96.5866 14.2507C96.4666 14.1307 96.4066 13.8907 96.4066 13.5307V10.4257C96.4066 9.79566 96.7216 9.48066 97.3516 9.48066H99.1516C99.4816 9.48066 99.6466 9.31566 99.6466 8.98566V4.71066C99.6466 4.08066 99.9766 3.76566 100.637 3.76566H104.417C105.047 3.76566 105.362 4.08066 105.362 4.71066V8.98566C105.362 9.31566 105.542 9.48066 105.902 9.48066H109.412C110.042 9.48066 110.357 9.79566 110.357 10.4257V13.5307C110.357 13.8607 110.282 14.1007 110.132 14.2507C110.012 14.3707 109.772 14.4307 109.412 14.4307H105.902C105.542 14.4307 105.362 14.5957 105.362 14.9257V24.8707C105.362 25.8007 105.572 26.4757 105.992 26.8957C106.412 27.2857 107.102 27.4807 108.062 27.4807H109.862C110.492 27.4807 110.807 27.7957 110.807 28.4257V31.5307C110.807 31.8607 110.732 32.1007 110.582 32.2507C110.462 32.3707 110.222 32.4307 109.862 32.4307H107.117C104.747 32.4307 102.902 31.8007 101.582 30.5407C100.292 29.2807 99.6466 27.4807 99.6466 25.1407V14.9257C99.6466 14.5957 99.4816 14.4307 99.1516 14.4307ZM122.801 32.4307H121.316C119.006 32.4307 117.251 31.8007 116.051 30.5407C114.881 29.2807 114.296 27.4657 114.296 25.0957V10.4257C114.296 9.79566 114.611 9.48066 115.241 9.48066H119.066C119.696 9.48066 120.011 9.79566 120.011 10.4257V24.8257C120.011 25.7857 120.206 26.4757 120.596 26.8957C121.016 27.2857 121.691 27.4807 122.621 27.4807H124.286C126.356 27.4807 127.391 26.3407 127.391 24.0607V10.4257C127.391 9.79566 127.706 9.48066 128.336 9.48066H132.116C132.776 9.48066 133.106 9.79566 133.106 10.4257V31.4857C133.106 32.1157 132.776 32.4307 132.116 32.4307H128.336C127.706 32.4307 127.391 32.1157 127.391 31.4857V30.0007H127.211C126.881 30.8107 126.296 31.4257 125.456 31.8457C124.616 32.2357 123.731 32.4307 122.801 32.4307ZM151.216 9.48066H155.581C155.941 9.48066 156.181 9.58566 156.301 9.79566C156.421 10.0057 156.376 10.2757 156.166 10.6057L150.181 20.4607V20.6407L156.436 31.3057C156.616 31.6057 156.631 31.8757 156.481 32.1157C156.331 32.3257 156.061 32.4307 155.671 32.4307H151.801C151.291 32.4307 150.916 32.3707 150.676 32.2507C150.466 32.1307 150.241 31.8757 150.001 31.4857L144.286 21.4507C144.016 20.9707 144.016 20.4757 144.286 19.9657L149.686 10.3807C150.016 9.78066 150.526 9.48066 151.216 9.48066ZM142.846 32.4307H139.021C138.391 32.4307 138.076 32.1157 138.076 31.4857V1.74066C138.076 1.11066 138.391 0.795664 139.021 0.795664H142.846C143.476 0.795664 143.791 1.11066 143.791 1.74066V31.4857C143.791 32.1157 143.476 32.4307 142.846 32.4307Z" fill="#1E1D23"/>
</svg>
