<svg width="120" height="120" viewBox="0 0 120 120" fill="none" xmlns="http://www.w3.org/2000/svg">
<path d="M80.5883 65.2939C80.5883 66.9927 80.1695 68.5951 79.4307 69.9997C77.7366 73.2186 74.3602 75.4114 70.4708 75.4114H55.412V96.8232H47.8827L47.4969 92.1175L45.9205 72.9292C45.5839 68.8185 48.8312 65.2939 52.9557 65.2939H80.5883Z" fill="#616161"/>
<path d="M80.5883 65.2939C80.5883 66.9927 80.1695 68.5951 79.4307 69.9997H63.6472C61.0482 69.9997 58.9414 67.8929 58.9414 65.2939H80.5883Z" fill="#424242"/>
<path d="M80.5881 39.4117V65.2939H63.647V27.6467H68.8234C70.5953 27.6467 72.2753 28.0398 73.7811 28.7408C77.8023 30.6116 80.5881 34.6869 80.5881 39.4117Z" fill="#FFA101"/>
<path d="M1.76465 103.882C1.76465 94.9156 9.03332 87.6467 18 87.6467C26.9668 87.6467 34.2354 94.9154 34.2354 103.882H1.76465Z" fill="#B0BEC5"/>
<path d="M6.52574 103.882C6.33777 104.716 6.23535 105.581 6.23535 106.47C6.23535 112.957 11.513 118.235 18 118.235C24.4871 118.235 29.7647 112.957 29.7647 106.47C29.7647 105.581 29.6623 104.716 29.4743 103.882H6.52574Z" fill="#616161"/>
<path d="M14.074 103.882C13.5825 104.625 13.2942 105.515 13.2942 106.47C13.2942 109.065 15.4052 111.176 18 111.176C20.5947 111.176 22.7058 109.065 22.7058 106.47C22.7058 105.514 22.4175 104.625 21.926 103.882H14.074Z" fill="#D8D7DA"/>
<path d="M77.3492 103.882C77.1613 104.716 77.0588 105.581 77.0588 106.47C77.0588 112.957 82.3365 118.235 88.8235 118.235C95.3106 118.235 100.588 112.957 100.588 106.47C100.588 105.581 100.486 104.716 100.298 103.882H77.3492Z" fill="#616161"/>
<path d="M84.8974 103.882C84.406 104.625 84.1177 105.515 84.1177 106.47C84.1177 109.065 86.2287 111.176 88.8235 111.176C91.4182 111.176 93.5292 109.065 93.5292 106.47C93.5292 105.514 93.2409 104.625 92.7495 103.882H84.8974Z" fill="#D8D7DA"/>
<path d="M42.9081 45.7338L30.5952 87.1643L29.1365 92.0726C26.4918 89.5784 23.0118 87.9644 19.1577 87.6914L20.5436 83.096L30.6093 49.6962C31.6351 45.9361 35.5152 43.7173 39.2751 44.7431L42.9081 45.7338Z" fill="#FFA101"/>
<path d="M20.8235 47.4114C24.9818 47.4114 28.3528 50.7824 28.3528 54.9407C28.3528 59.099 24.9818 62.4702 20.8235 62.4702V47.4114Z" fill="#FDD844"/>
<path d="M55.4119 92.1172V96.823H47.8824L47.4966 92.1172H55.4119Z" fill="#424242"/>
<path d="M69.059 96.8231V103.882H42.4708L32.7695 96.3668L32.1107 95.856C31.3108 94.4514 30.306 93.176 29.1365 92.0725L30.9695 85.9031L34.9837 88.9148L45.5296 96.8231H69.059Z" fill="#B0BEC5"/>
<path d="M107.412 89.5292V103.882H69.0588V75.4116H93.2941C97.1672 75.4116 100.678 76.9716 103.226 79.4963C104.723 80.9787 105.889 82.7928 106.607 84.8234C107.13 86.2962 107.412 87.8797 107.412 89.5292Z" fill="#FFA101"/>
<path d="M103.238 80.3832C103.071 85.5973 99.0284 89.529 93.8353 89.529H78.4706C74.8589 89.529 71.5577 88.1642 69.0588 85.9219V75.4114H93.2941C97.1672 75.4114 100.678 76.9714 103.226 79.4961C103.245 79.7879 103.247 80.0843 103.238 80.3832Z" fill="#93370C"/>
<path d="M93.8348 84.8232H78.4706C73.2727 84.8232 69.0588 80.6093 69.0588 75.4114H93.2941C93.6014 75.4114 93.9066 75.4212 94.2091 75.4404C100.217 75.8246 99.8548 84.8232 93.8348 84.8232Z" fill="#B0BEC5"/>
<path d="M118.236 54.2354H87.6472V75.4118H118.236V54.2354Z" fill="#FFA101"/>
<path d="M70.1143 31.1176C71.4465 30.5202 72.6882 29.7195 73.7811 28.7408C72.2753 28.0395 70.5953 27.6467 68.8234 27.6467H63.647V29.1125V32.3338V63.1738C69.0116 62.082 73.0588 57.3268 73.0588 51.6467V37.5292C73.0588 34.9688 71.9153 32.672 70.1143 31.1176Z" fill="#93370C"/>
<path d="M71.1011 24.7928C69.6892 26.2469 67.8116 27.247 65.7081 27.5505C65.2658 27.614 64.814 27.6471 64.3527 27.6471C59.5527 27.6471 55.5927 24.0541 55.0138 19.4118C54.9667 19.026 54.9409 18.633 54.9409 18.2353C54.9409 16.9858 55.1856 15.7952 55.6279 14.7058H65.2937V17.8469C65.294 21.3175 67.7999 24.2022 71.1011 24.7928Z" fill="#FDD8A8"/>
<path d="M71.1011 24.7928C69.6892 26.2469 67.8116 27.247 65.7081 27.5505C63.0257 25.7081 61.1411 22.7835 60.6915 19.4116H55.0138C54.9667 19.0258 54.9409 18.6328 54.9409 18.235C54.9409 16.9856 55.1856 15.7949 55.6279 14.7056H65.2937V17.8467C65.294 21.3175 67.7999 24.2022 71.1011 24.7928Z" fill="#FFC477"/>
<path d="M79.4117 24.9049C80.4064 22.6687 80.9166 20.1714 80.8093 17.5469C80.4629 9.08386 73.6294 2.19512 65.1694 1.78402C56.9422 1.38441 51.6762 7.06027 49.9998 14.7054H65.2939V17.8457C65.2939 21.7443 68.4542 24.9046 72.3528 24.9046H79.4117V24.9049Z" fill="#FFA101"/>
<path d="M47.8823 58.7057H61.2942C65.1928 58.7057 68.3531 55.5453 68.3531 51.6467V37.5292C68.3531 35.4498 66.6677 33.7644 64.5883 33.7644C62.509 33.7644 60.8236 35.4498 60.8236 37.5292V51.1761H47.8823V58.7057Z" fill="#FFA101"/>
<path d="M47.8825 51.1763H40.8236C38.7442 51.1763 37.0588 52.8617 37.0588 54.941C37.0588 57.0204 38.7442 58.7058 40.8236 58.7058H47.8825V51.1763Z" fill="#FDD8A8"/>
<path d="M118.236 54.2354H87.6472V58.9411H118.236V54.2354Z" fill="#93370C"/>
<path d="M118.236 48.3527C118.236 46.4036 116.655 44.8232 114.706 44.8232H91.1767C89.2276 44.8232 87.6472 46.4034 87.6472 48.3527V54.235H118.236V48.3527V48.3527Z" fill="#FFA101"/>
<path d="M30.5952 87.1642L29.1365 92.0725C26.4918 89.5783 23.0118 87.9644 19.1577 87.6913L20.5436 83.0959C24.287 83.5502 27.7269 84.9972 30.5952 87.1642Z" fill="#93370C"/>
<path d="M34.9837 88.915L32.7695 96.3668L32.1107 95.856C31.3108 94.4514 30.306 93.176 29.1365 92.0725L30.9695 85.9031L34.9837 88.915Z" fill="#90A4AE"/>
<path d="M114.706 43.0584H91.1766C88.2572 43.0584 85.8825 45.4335 85.8825 48.3524V73.6467H78.9117C80.6456 71.8947 81.8398 69.6079 82.2211 67.0584H82.3528V39.4115C82.3528 33.5453 78.5991 28.5414 73.3683 26.6699H80.558L81.0239 25.6225C82.1674 23.0514 82.6884 20.3102 82.5724 17.4752C82.1904 8.14119 74.5837 0.475022 65.2549 0.021741C56.8092 -0.385837 50.3009 5.09362 48.2759 14.3278L47.8059 16.4704H53.318C53.2252 17.0512 53.1762 17.6397 53.1762 18.235C53.1762 23.5488 56.9046 28.0049 61.882 29.133V32.71C60.1985 33.659 59.0585 35.463 59.0585 37.5292V49.4116H43.6552L45.113 44.5059L39.739 43.0408C37.4653 42.4209 35.0859 42.7232 33.0396 43.8928C31.0005 45.0581 29.5352 46.9457 28.9116 49.2091L28.6781 49.9835C27.0295 47.3803 24.1254 45.6468 20.8223 45.6468H19.0584V64.2351H20.823C22.1796 64.2351 23.4677 63.9405 24.6307 63.4157L17.8594 85.8855C7.99922 85.9612 0 94.0033 0 103.882V105.647H4.49812C4.48125 105.921 4.4707 106.196 4.4707 106.47C4.4707 113.93 10.5398 119.999 18 119.999C25.4602 119.999 31.5293 113.93 31.5293 106.47C31.5293 106.196 31.5188 105.921 31.5019 105.647H36V103.882C36 102.869 35.9116 101.876 35.7499 100.908L41.8671 105.647H75.3218C75.3049 105.921 75.2944 106.196 75.2944 106.47C75.2944 113.93 81.3635 119.999 88.8237 119.999C96.2838 119.999 102.353 113.93 102.353 106.47C102.353 106.196 102.342 105.921 102.326 105.647H109.177V89.5288C109.177 87.7106 108.872 85.9289 108.271 84.2355C107.27 81.4 105.509 78.9829 103.268 77.1759H120V48.3524C120 45.4335 117.625 43.0584 114.706 43.0584ZM22.5881 49.4524C24.9066 50.1993 26.5882 52.3776 26.5882 54.9407C26.5882 57.5039 24.9066 59.6821 22.5881 60.4291V49.4524ZM91.1766 46.5878H114.706C115.679 46.5878 116.471 47.3793 116.471 48.3524V52.4702H109.412V49.529H105.882V52.4702H101.176V49.529H97.647V52.4702H89.4117V48.3524C89.4117 47.3793 90.2032 46.5878 91.1766 46.5878ZM93.9968 77.1984C94.0477 77.2014 94.0988 77.2038 94.1494 77.2075C96.146 77.3622 96.8109 78.8974 96.7704 80.1768C96.728 81.506 95.9337 83.0585 93.8351 83.0585H78.4709C74.8615 83.0585 71.828 80.5448 71.0295 77.1761L93.7634 77.1855C93.9963 77.1853 93.7631 77.1853 93.9968 77.1984ZM67.2942 95.0585H57.1765V77.1761H67.2942V95.0585ZM70.4707 73.6467H53.6473V95.0585H49.5084L47.6801 72.7858C47.5575 71.294 48.0485 69.8662 49.0627 68.7656C50.0768 67.6647 51.4596 67.0586 52.9563 67.0586H78.6361C77.8238 70.8196 74.471 73.6467 70.4707 73.6467ZM40.8234 60.4703H61.294C61.4918 60.4703 61.6877 60.4614 61.8823 60.4485V63.5292H52.9559C50.4975 63.5292 48.1324 64.566 46.4665 66.374C44.8005 68.1822 43.9608 70.6242 44.1619 73.0746L45.9567 94.938L33.0108 85.2285L40.3746 60.4504C40.523 60.4624 40.6725 60.4703 40.8234 60.4703ZM78.8236 39.4115V63.5292H65.4117V59.4473C68.2078 57.9653 70.1175 55.0256 70.1175 51.6468V37.5292C70.1175 34.7601 68.0714 32.4604 65.4117 32.0615V29.4117H68.8235C74.3377 29.4114 78.8236 33.8974 78.8236 39.4115ZM65.0841 3.54674C72.6052 3.91213 78.7383 10.0933 79.0463 17.6193C79.1243 19.5257 78.8461 21.378 78.2182 23.1405H72.353C72.0804 23.1405 71.8125 23.1199 71.5512 23.0798L71.4129 23.0552C71.2582 23.0275 71.1066 22.9928 70.9573 22.9525C70.9493 22.9504 70.9416 22.9481 70.9336 22.9457C70.7927 22.9068 70.6542 22.8623 70.5188 22.8126C70.497 22.8046 70.4756 22.7955 70.4538 22.7871C70.3526 22.7484 70.2534 22.7057 70.1555 22.6612C70.0948 22.6335 70.0348 22.6047 69.9755 22.5747C69.9091 22.5414 69.844 22.5067 69.7795 22.4709C69.6555 22.4017 69.5346 22.3281 69.4169 22.2494C69.4092 22.2442 69.4012 22.2396 69.3937 22.2344C69.0424 21.9965 68.7211 21.7176 68.4363 21.4047L68.4361 21.4045C68.3243 21.2814 68.2181 21.153 68.1183 21.0199C68.1157 21.0164 68.1129 21.0131 68.1103 21.0096C67.9655 20.8157 67.834 20.6111 67.7163 20.3983C67.6842 20.3399 67.6535 20.2809 67.6235 20.2214C67.5863 20.1475 67.5509 20.0728 67.5169 19.9971C67.4834 19.9216 67.4512 19.8452 67.421 19.7681C67.4016 19.7181 67.3823 19.6682 67.3643 19.6178C67.328 19.5156 67.2952 19.4121 67.2649 19.3071C67.2551 19.2724 67.2448 19.2381 67.2356 19.2032C67.2033 19.0814 67.1759 18.9578 67.1524 18.8329C67.1468 18.8034 67.1416 18.7731 67.1365 18.7434C67.1142 18.6124 67.0957 18.4799 67.0833 18.3459C67.0812 18.3246 67.0802 18.303 67.0784 18.2817C67.0666 18.138 67.0591 17.9929 67.0591 17.8467V12.9412H52.3113C54.3832 6.72697 59.0374 3.25541 65.0841 3.54674ZM56.7059 18.235C56.7059 17.636 56.7748 17.0456 56.9114 16.4704H63.5292V17.8464C63.5292 18.0203 63.5355 18.1926 63.5456 18.3642C63.5489 18.4199 63.5541 18.475 63.5583 18.5303C63.5672 18.6464 63.5777 18.7621 63.5913 18.877C63.5988 18.941 63.6068 19.0049 63.6157 19.0685C63.6305 19.1749 63.6478 19.2806 63.6663 19.3856C63.6776 19.4503 63.6881 19.5152 63.7012 19.5794C63.724 19.6935 63.7505 19.8065 63.7774 19.919C63.8063 20.039 63.8384 20.1576 63.8721 20.2755C63.893 20.3486 63.9131 20.4222 63.9359 20.4946C63.967 20.5935 64.001 20.6908 64.0355 20.7883C64.0523 20.8359 64.0692 20.8835 64.0868 20.9303C64.1276 21.0398 64.1702 21.1481 64.215 21.2552C64.2234 21.2753 64.2323 21.2955 64.241 21.3156C64.9195 22.9038 66.049 24.2624 67.4902 25.2128C66.5175 25.6514 65.4539 25.882 64.3528 25.882C60.1364 25.882 56.7059 22.4517 56.7059 18.235ZM62.5882 52.9408V37.529C62.5882 36.4263 63.4854 35.5291 64.5881 35.5291C65.6909 35.5291 66.588 36.4263 66.588 37.529V51.6466C66.588 54.5657 64.2131 56.9406 61.294 56.9406H40.8234C39.7207 56.9406 38.8235 56.0435 38.8235 54.9407C38.8235 53.838 39.7207 52.9408 40.8234 52.9408H62.5882ZM32.2983 50.2059L32.3112 50.1609C32.6831 48.7964 33.5641 47.6587 34.7918 46.9572C36.0195 46.2555 37.447 46.0736 38.8113 46.4458L40.702 46.9612L39.9534 49.4805C37.3165 49.8991 35.2941 52.1878 35.2941 54.9407C35.2941 56.5631 35.9965 58.0242 37.1128 59.0367L30 82.9701L29.6977 83.9875L28.1925 89.0519C28.1667 89.0341 28.1395 89.0181 28.1138 89.0006C27.948 88.8876 27.7786 88.78 27.6091 88.6729C27.5374 88.6277 27.4676 88.5796 27.3952 88.5358C25.5959 87.4303 23.5884 86.6339 21.4465 86.2169L32.2983 50.2059ZM28.0001 106.47C28.0001 111.984 23.5141 116.47 18 116.47C12.4859 116.47 7.99992 111.984 7.99992 106.47C7.99992 106.196 8.01141 105.922 8.03461 105.647H11.5852C11.5502 105.919 11.5294 106.193 11.5294 106.47C11.5294 110.038 14.4319 112.941 18 112.941C21.5681 112.941 24.4706 110.038 24.4706 106.47C24.4706 106.193 24.4498 105.919 24.4148 105.647H27.9654C27.9884 105.922 28.0001 106.196 28.0001 106.47ZM20.9412 106.47C20.9412 108.092 19.6219 109.411 18 109.411C16.3781 109.411 15.0588 108.092 15.0588 106.47C15.0588 106.189 15.0991 105.913 15.1772 105.647H20.8226C20.9009 105.913 20.9412 106.189 20.9412 106.47ZM32.3634 102.117H3.63656C4.50937 94.9673 10.6179 89.4114 18 89.4114C18.2255 89.4114 18.4493 89.4168 18.6724 89.4271L19.0345 89.4527C21.3028 89.613 23.4982 90.3142 25.4348 91.4739C25.444 91.4796 25.4536 91.4847 25.4627 91.4903C25.5916 91.5677 25.718 91.6495 25.8445 91.731C25.9048 91.7702 25.9655 91.8079 26.0252 91.8478C26.1129 91.9064 26.1991 91.9675 26.2856 92.028C26.3813 92.095 26.4769 92.1614 26.5709 92.2305C26.6283 92.2729 26.6845 92.3165 26.7415 92.3596C26.8608 92.4503 26.9794 92.5415 27.0959 92.636C27.1324 92.6653 27.168 92.6957 27.2044 92.7257C27.3363 92.8347 27.4669 92.9453 27.5951 93.059C27.6206 93.0817 27.6459 93.1049 27.6715 93.1279C27.8128 93.2552 27.9527 93.3843 28.0889 93.517C28.0922 93.52 28.0955 93.5233 28.0985 93.5263C28.2499 93.674 28.398 93.8249 28.5429 93.9789C28.5434 93.9794 28.5436 93.9796 28.5441 93.9801C29.1216 94.5944 29.6449 95.2596 30.109 95.9674C30.1273 95.9955 30.1455 96.0238 30.1638 96.052C30.2555 96.1938 30.3443 96.3374 30.4308 96.4825C30.4542 96.5219 30.4781 96.561 30.5011 96.6009C31.4707 98.2596 32.1204 100.126 32.3634 102.117ZM67.2942 102.117H43.0741L33.4629 94.6717C33.4441 94.6401 33.423 94.6103 33.4041 94.5789C33.3633 94.5117 33.3197 94.4465 33.278 94.3799C32.8589 93.7073 32.3979 93.0628 31.8947 92.4517C31.8907 92.4468 31.887 92.4419 31.8827 92.437C31.7238 92.2446 31.5591 92.0568 31.3922 91.871C31.3577 91.8325 31.3245 91.7939 31.2898 91.7559C31.2342 91.6952 31.1822 91.6317 31.1259 91.5717L31.939 88.8363L44.9414 98.5881H67.2944V102.117H67.2942ZM98.8235 106.47C98.8235 111.984 94.3376 116.47 88.8234 116.47C83.3093 116.47 78.8234 111.984 78.8234 106.47C78.8234 106.196 78.8348 105.922 78.858 105.647H82.4086C82.3737 105.919 82.3528 106.193 82.3528 106.47C82.3528 110.038 85.2553 112.941 88.8234 112.941C92.3913 112.941 95.2941 110.038 95.2941 106.47C95.2941 106.193 95.2732 105.919 95.2383 105.647H98.7891C98.812 105.922 98.8235 106.196 98.8235 106.47ZM91.7646 106.47C91.7646 108.092 90.4453 109.411 88.8234 109.411C87.2016 109.411 85.8823 108.092 85.8823 106.47C85.8823 106.189 85.9226 105.913 86.0006 105.647H91.646C91.7245 105.913 91.7646 106.189 91.7646 106.47ZM105.647 102.117H70.8234V83.5513C72.8243 85.4322 75.5142 86.5881 78.4704 86.5881H93.8346C97.9458 86.5881 100.198 83.4194 100.298 80.2896C100.308 79.9713 100.294 79.6514 100.259 79.3328C102.38 80.7808 104.05 82.8827 104.944 85.413C105.41 86.7288 105.647 88.1137 105.647 89.5291L105.647 102.117ZM89.4117 73.6467V55.9996H97.647V58.9408H101.176V55.9996H105.882V58.9408H109.412V55.9996H116.471V73.6467H89.4117Z" fill="black"/>
<path d="M119.882 84.4705H113.059V87.9999H119.882V84.4705Z" fill="black"/>
<path d="M119.882 93.2939H113.059V96.8234H119.882V93.2939Z" fill="black"/>
<path d="M119.882 102.117H113.059V105.647H119.882V102.117Z" fill="black"/>
<path d="M13.2707 98.1801L11.0144 95.4661C12.9735 93.8376 15.4544 92.9409 17.9997 92.9409V96.4704C16.2768 96.4704 14.5973 97.0776 13.2707 98.1801Z" fill="white"/>
<path d="M89.7646 98.5877H86.2351V95.0582H89.7646V98.5877ZM82.7057 98.5877H74.3528V89.7642H77.8822V95.0582H82.7057V98.5877Z" fill="white"/>
<path d="M102.118 89.5291H98.5881V94.9408H102.118V89.5291Z" fill="white"/>
<path d="M76.2353 53.7646H72.7058V60.5882H76.2353V53.7646Z" fill="white"/>
<path d="M112.941 70.1172H105.294V66.5877H109.412V62.4702H112.941V70.1172Z" fill="white"/>
<path d="M71.995 17.9456L71.9931 17.9076C71.9401 16.6153 71.5466 15.3445 70.8545 14.2328L73.851 12.3679C74.8611 13.9912 75.4375 15.8498 75.5185 17.7438L75.5202 17.7876L73.7153 17.8478L71.995 17.9456Z" fill="white"/>
<path d="M67.6469 7.05835H59.647V10.5878H67.6469V7.05835Z" fill="white"/>
</svg>
